<mxfile host="app.diagrams.net" modified="2022-11-20T15:51:15.030Z" agent="5.0 (Windows)" etag="1LA_QzhmKOafKpUZzz7Z" version="20.5.3" type="github">
  <diagram id="dP9nEBYYfCSUthXsBOl2" name="Page-1">
    <mxGraphModel dx="1209" dy="683" grid="1" gridSize="10" guides="1" tooltips="1" connect="1" arrows="1" fold="1" page="1" pageScale="1" pageWidth="850" pageHeight="1100" math="0" shadow="0">
      <root>
        <mxCell id="0" />
        <mxCell id="1" parent="0" />
        <mxCell id="D7PItossZ8P2hDhpegd3-1" value="" style="rounded=0;whiteSpace=wrap;html=1;" vertex="1" parent="1">
          <mxGeometry x="90" y="60" width="120" height="60" as="geometry" />
        </mxCell>
        <mxCell id="D7PItossZ8P2hDhpegd3-2" value="" style="shape=image;html=1;verticalLabelPosition=bottom;verticalAlign=top;imageAspect=1;aspect=fixed;image=img/clipart/Gear_128x128.png" vertex="1" parent="1">
          <mxGeometry x="230" y="180" width="52" height="61" as="geometry" />
        </mxCell>
      </root>
    </mxGraphModel>
  </diagram>
</mxfile>
